<svg width="42" height="42" viewBox="0 0 42 42" fill="none" xmlns="http://www.w3.org/2000/svg">
<path d="M0 5.23478C0 2.34369 2.50721 0 5.6 0H36.4C39.4928 0 42 2.34369 42 5.23478V36.7652C42 39.6563 39.4928 42 36.4 42H5.6C2.50721 42 0 39.6563 0 36.7652V5.23478Z" fill="#FFDDDC"/>
<g clip-path="url(#clip0_26573_165121)">
<path fill-rule="evenodd" clip-rule="evenodd" d="M26.9125 15.2539C26.9125 15.2539 26.9125 15.2539 26.9071 15.2539C26.5937 15.5115 26.5829 15.9945 26.8639 16.2844L26.9179 16.3434C27.1882 16.6279 27.6313 16.644 27.9286 16.3863C27.9448 16.3702 27.961 16.3595 27.9772 16.3434C30.0147 14.4434 33.225 14.5615 35.1382 16.601C35.1382 16.601 35.149 16.6118 35.1544 16.6171C35.4355 16.8909 35.8733 16.9123 36.1651 16.6493L36.2191 16.601C36.511 16.338 36.538 15.8818 36.2678 15.592C33.7655 12.9191 29.6094 12.7688 26.9179 15.2539H26.9125Z" fill="#E11900"/>
<path fill-rule="evenodd" clip-rule="evenodd" d="M28.9014 17.3575C28.9014 17.3575 28.8527 17.4004 28.8311 17.4219C28.5609 17.6903 28.5555 18.1196 28.8203 18.3934C29.0905 18.6725 29.5337 18.6671 29.8147 18.3934C29.8255 18.3826 29.8363 18.3719 29.8471 18.3612C30.7767 17.5024 32.2522 17.5507 33.1007 18.4578C33.1061 18.4685 33.1169 18.4739 33.1223 18.4846C33.3817 18.7744 33.8249 18.8066 34.1113 18.5437C34.387 18.2914 34.4086 17.8674 34.16 17.5883C34.1438 17.5722 34.1329 17.5561 34.1167 17.54C32.717 16.064 30.4038 15.9835 28.9014 17.3521V17.3575Z" fill="#E11900"/>
<path fill-rule="evenodd" clip-rule="evenodd" d="M38.1917 13.767C34.722 10.0636 28.8743 9.84895 25.1181 13.2947C25.0911 13.3269 25.0587 13.3537 25.0317 13.3806C24.7723 13.6489 24.7723 14.0622 25.0263 14.3359C25.2911 14.6204 25.7397 14.6311 26.0207 14.3628C26.0369 14.352 26.0477 14.3359 26.0639 14.3252C29.2418 11.3893 34.214 11.5665 37.1703 14.7277C37.1811 14.7385 37.1919 14.7492 37.2081 14.7653C37.4729 15.0283 37.8999 15.0444 38.1755 14.7922C38.4511 14.5399 38.4836 14.1213 38.2458 13.8368C38.2296 13.8153 38.2079 13.7939 38.1917 13.7724V13.767Z" fill="#E11900"/>
<g style="mix-blend-mode:multiply">
<path d="M24.5992 37.0132C32.2762 37.0132 38.4997 34.4564 38.4997 31.3025C38.4997 28.1486 32.2762 25.5918 24.5992 25.5918C16.9222 25.5918 10.6987 28.1486 10.6987 31.3025C10.6987 34.4564 16.9222 37.0132 24.5992 37.0132Z" fill="#F9CFCF"/>
</g>
<path d="M7.31566 25.354H5.14844L5.71051 9.6871C5.71591 9.47241 5.84562 9.28456 6.02938 9.19868C6.10504 9.15038 6.20232 9.12891 6.2942 9.12891C6.60766 9.12891 6.87248 9.3758 6.87789 9.69246L7.31566 25.3486V25.354Z" fill="#FFFDFD"/>
<path d="M6.02938 9.20459L5.78077 25.3545H5.14844L5.71051 9.68763C5.71591 9.47295 5.84562 9.28509 6.02938 9.19922V9.20459Z" fill="#EAD6D6"/>
<path d="M5.19182 25.5791C4.87836 24.2588 6.15383 24.0602 7.22392 24.3554L8.99661 24.8492L6.19706 25.9817L5.19182 25.5791Z" fill="#D3B8B8"/>
<path d="M11.7043 23.4981L9.54785 23.2565L11.8718 7.75603C11.9042 7.54135 12.0502 7.36959 12.2447 7.30519C12.3258 7.26762 12.4231 7.25688 12.5149 7.26762C12.823 7.29982 13.0608 7.57892 13.0338 7.89558L11.7043 23.4981Z" fill="#FFFDFD"/>
<path d="M12.2447 7.30469L10.1748 23.3258L9.54785 23.256L11.8718 7.75553C11.9042 7.54084 12.0502 7.36909 12.2447 7.30469Z" fill="#EAD6D6"/>
<path d="M9.41252 23.9698C9.09906 22.6494 10.3745 22.4509 11.4446 22.746L13.2173 23.2398L10.4178 24.3723L9.41252 23.9698Z" fill="#D3B8B8"/>
<path d="M17.0925 21.1201H14.9253L15.4874 5.45858C15.4928 5.24389 15.6225 5.05604 15.8062 4.97016C15.8819 4.92186 15.9792 4.90039 16.0711 4.90039C16.3845 4.90039 16.6493 5.14728 16.6547 5.46395L17.0925 21.1201Z" fill="#FFFDFD"/>
<path d="M15.8062 4.9707L15.5576 21.1206H14.9253L15.4874 5.45912C15.4928 5.24443 15.6225 5.05658 15.8062 4.9707Z" fill="#EAD6D6"/>
<path d="M15.0605 21.4737C14.747 20.1533 16.0225 19.9548 17.0926 20.25L18.8653 20.7437L16.0657 21.8762L15.0605 21.4737Z" fill="#D3B8B8"/>
<path d="M20.1407 20.2561L18.2329 19.7086L22.7457 6.08129C22.8106 5.89343 22.9673 5.75925 23.151 5.73242C23.2321 5.71095 23.3186 5.71632 23.3996 5.73778C23.6753 5.81829 23.8428 6.10275 23.7672 6.38185L20.1299 20.2507L20.1407 20.2561Z" fill="#FFFDFD"/>
<path d="M23.1511 5.73242L18.7842 19.8643L18.2275 19.7033L22.7457 6.08129C22.8106 5.89344 22.9673 5.75926 23.1511 5.73242Z" fill="#EAD6D6"/>
<path d="M18.1734 20.0692C17.887 18.8615 19.0544 18.6791 20.038 18.9528L21.6594 19.4036L19.0976 20.4395L18.1788 20.0692H18.1734Z" fill="#D3B8B8"/>
<path d="M4.8999 29.144L18.0816 36.1965C18.3194 36.3146 18.6004 36.3146 18.8328 36.1965L35.7544 27.0884C36.3165 26.7878 36.6624 26.2028 36.6624 25.5695V24.1042L24.7291 20.4223C24.5292 20.3472 24.3076 20.3525 24.1076 20.433L4.8999 26.9971V29.144Z" fill="#E11900"/>
<path d="M35.8298 25.2847L22.2212 32.3318H22.2158L19.173 33.9098C18.7299 34.1406 18.2002 34.1406 17.7462 33.9152L5.305 27.6624C4.74293 27.3833 4.76455 26.5782 5.34284 26.3367L16.5681 21.5437H16.5735L23.8372 18.4361C24.2101 18.2805 24.6316 18.2751 25.0153 18.4146L35.6623 22.4562C36.9161 22.9285 37.0188 24.6621 35.8244 25.2847H35.8298Z" fill="#FFFDFD"/>
<path d="M29.8417 26.4071L29.5174 26.2246C29.4417 26.1817 29.4309 26.1173 29.5012 26.0797L29.7768 25.9294C29.8417 25.8919 29.9606 25.8972 30.0362 25.9402L30.3605 26.1173C30.4416 26.1602 30.447 26.2246 30.3821 26.2622L30.1065 26.4125C30.0362 26.45 29.9173 26.4447 29.8417 26.4017V26.4071Z" fill="#EAD6D6"/>
<path d="M28.4744 27.1527L28.1501 26.9595C28.0745 26.9112 28.0691 26.8414 28.1393 26.8038L28.4366 26.6482C28.5068 26.6106 28.6257 26.616 28.7068 26.6589L29.0311 26.8468C29.1121 26.8951 29.1176 26.9595 29.0473 27.0024L28.75 27.1634C28.6798 27.201 28.5555 27.1956 28.4744 27.1473V27.1527Z" fill="#FFB93E"/>
<path d="M23.7993 29.713L23.475 29.4822C23.394 29.4286 23.4048 29.3427 23.4913 29.2944L23.8534 29.1012C23.9398 29.0529 24.075 29.0636 24.1506 29.1173L24.4749 29.3427C24.556 29.3964 24.5506 29.4822 24.4641 29.5305L24.102 29.7291C24.0155 29.7774 23.875 29.7721 23.7993 29.713Z" fill="#FFB93E"/>
<path d="M22.0106 30.684L21.6864 30.4371C21.6107 30.3781 21.6215 30.2868 21.7188 30.2385L22.1025 30.0346C22.1944 29.9863 22.3349 29.9916 22.4106 30.0507L22.7349 30.2922C22.8159 30.3512 22.8051 30.4425 22.7132 30.4908L22.3295 30.7055C22.2322 30.7591 22.0917 30.7484 22.016 30.6894L22.0106 30.684Z" fill="#FFB93E"/>
<path d="M27.0154 27.9523L26.6911 27.7483C26.6155 27.7 26.61 27.6249 26.6911 27.582L27.0046 27.4156C27.0802 27.3726 27.2045 27.3834 27.2856 27.4317L27.6099 27.6303C27.691 27.6786 27.691 27.7537 27.6153 27.7966L27.3018 27.9684C27.2262 28.0113 27.0965 28.006 27.0154 27.9523Z" fill="#EAD6D6"/>
<path d="M25.4586 28.8007L25.1343 28.586C25.0533 28.5323 25.0587 28.4572 25.1397 28.4142L25.4748 28.2318C25.5559 28.1888 25.6856 28.1942 25.7613 28.2479L26.0855 28.4572C26.1666 28.5108 26.1666 28.586 26.0855 28.6289L25.7505 28.8114C25.6694 28.8543 25.5343 28.849 25.4586 28.7953V28.8007Z" fill="#EAD6D6"/>
<g style="mix-blend-mode:multiply" opacity="0.45">
<path d="M22.2158 32.333H22.2104L19.1676 33.911C18.7245 34.1418 18.1948 34.1418 17.7408 33.9163L5.305 27.6635C4.74293 27.3844 4.76455 26.5794 5.34284 26.3378L16.5681 21.5449C16.3519 21.9153 9.65566 33.0254 22.2158 32.333Z" fill="#D6D0D0"/>
</g>
<path d="M15.6657 24.8029L23.0375 21.5182C23.1132 21.4859 23.1942 21.4806 23.2699 21.5074L26.6639 22.7043C26.9234 22.7955 26.945 23.1498 26.6964 23.2732L19.4597 26.8478C19.3786 26.8907 19.2813 26.8907 19.2003 26.8532L15.6711 25.3664C15.4225 25.2591 15.4171 24.9102 15.6657 24.7975V24.8029Z" fill="#E11900"/>
</g>
<defs>
<clipPath id="clip0_26573_165121">
<rect width="33.6" height="32.1067" fill="white" transform="translate(4.8999 4.90039)"/>
</clipPath>
</defs>
</svg>
